HIERARCHY
ROOT root
{
	OFFSET	0	13.1	24.9
	CHANNELS 6  Xposition Yposition Zposition Xrotation Yrotation Zrotation
	JOINT spine_1
	{
		OFFSET	0	9.99999	0
		CHANNELS 3  Xrotation Yrotation Zrotation
		JOINT spine_2
		{
			OFFSET	0	112	-10
			CHANNELS 3  Xrotation Yrotation Zrotation
			JOINT spine_3
			{
				OFFSET	0	206.5	19.3
				CHANNELS 3  Xrotation Yrotation Zrotation
				JOINT spine_4
				{
					OFFSET	0	110.4	14.6
					CHANNELS 3  Xrotation Yrotation Zrotation
					JOINT neck_1
					{
						OFFSET	0	71.8	-50.3
						CHANNELS 3  Xrotation Yrotation Zrotation
						JOINT neck_2
						{
							OFFSET	0	86.2	-25.8
							CHANNELS 3  Xrotation Yrotation Zrotation
							JOINT head_ee
							{
								OFFSET	0	179.8	-8.7
								CHANNELS 3  Xrotation Yrotation Zrotation
								End Site
								{
									OFFSET	1	0	0
								}
							}
						}
					}
					JOINT left_clavicle
					{
						OFFSET	-43.2	22.4	-70.8
						CHANNELS 3  Xrotation Yrotation Zrotation
						JOINT left_shoulder
						{
							OFFSET	-93.9	-5.79999	48.7
							CHANNELS 3  Xrotation Yrotation Zrotation
							JOINT left_elbow
							{
								OFFSET	-291.4	-30.8	15.2
								CHANNELS 3  Xrotation Yrotation Zrotation
								JOINT left_lowarm_twist
								{
									OFFSET	-110.7	-3.89999	13.6
									CHANNELS 3  Xrotation Yrotation Zrotation
									JOINT left_hand
									{
										OFFSET	-110.7	-3.89999	13.6
										CHANNELS 3  Xrotation Yrotation Zrotation
										JOINT left_ee
										{
											OFFSET	-80.8	-5.10001	12.1
											CHANNELS 3  Xrotation Yrotation Zrotation
											End Site
											{
												OFFSET	1	0	0
											}
										}
									}
								}
							}
						}
					}
					JOINT right_clavicle
					{
						OFFSET	43.2	22.4	-70.8
						CHANNELS 3  Xrotation Yrotation Zrotation
						JOINT right_shoulder
						{
							OFFSET	93.9	-5.79999	48.7
							CHANNELS 3  Xrotation Yrotation Zrotation
							JOINT right_elbow
							{
								OFFSET	291.4	-30.8	15.2
								CHANNELS 3  Xrotation Yrotation Zrotation
								JOINT right_lowarm_twist
								{
									OFFSET	110.7	-3.89999	13.6
									CHANNELS 3  Xrotation Yrotation Zrotation
									JOINT right_hand
									{
										OFFSET	110.7	-3.89999	13.6
										CHANNELS 3  Xrotation Yrotation Zrotation
										JOINT right_ee
										{
											OFFSET	80.8	-5.10001	12.1
											CHANNELS 3  Xrotation Yrotation Zrotation
											End Site
											{
												OFFSET	1	0	0
											}
										}
									}
								}
							}
						}
					}
				}
			}
		}
	}
	JOINT left_hip
	{
		OFFSET	-82.8	-127.5	0.300001
		CHANNELS 3  Xrotation Yrotation Zrotation
		JOINT left_knee
		{
			OFFSET	-28.2	-396.7	2.2
			CHANNELS 3  Xrotation Yrotation Zrotation
			JOINT left_ankle
			{
				OFFSET	-11.7	-411.3	35.4
				CHANNELS 3  Xrotation Yrotation Zrotation
				JOINT left_toes
				{
					OFFSET	0	-60	-88.6
					CHANNELS 3  Xrotation Yrotation Zrotation
					JOINT left_foot_ee
					{
						OFFSET	-22.5	-16.5	-42.2
						CHANNELS 3  Xrotation Yrotation Zrotation
						End Site
						{
							OFFSET	1	0	0
						}
					}
				}
			}
		}
	}
	JOINT right_hip
	{
		OFFSET	82.8	-127.5	0.300001
		CHANNELS 3  Xrotation Yrotation Zrotation
		JOINT right_knee
		{
			OFFSET	28.2	-396.7	2.2
			CHANNELS 3  Xrotation Yrotation Zrotation
			JOINT right_ankle
			{
				OFFSET	11.7	-411.3	35.4
				CHANNELS 3  Xrotation Yrotation Zrotation
				JOINT right_toes
				{
					OFFSET	0	-60	-88.6
					CHANNELS 3  Xrotation Yrotation Zrotation
					JOINT right_foot_ee
					{
						OFFSET	22.5	-16.5	-42.2
						CHANNELS 3  Xrotation Yrotation Zrotation
						End Site
						{
							OFFSET	1	0	0
						}
					}
				}
			}
		}
	}
}
MOTION
Frames: 15
Frame Time: 0.02
3528.3 674.131 -1557.32 -3.9976 84.1072 0.600582 1.11787 0.623577 1.12748 1.11841 0.550574 1.16487 1.12993 0.318226 1.2485 1.12812 0.511396 1.18259 -0.0057119 0.222121 -2.85692 0.0273301 2.73405 -3.05007 -0.0 0.0 -0.0 -2.50074 23.1517 -0.766317 -16.4053 -13.4811 76.6889 1.04051 -27.2677 0.252384 -50.3368 -4.11131 4.7004 0.398269 28.7175 13.452 -0.0 0.0 -0.0 11.3888 -5.95275 -22.0087 -20.8534 39.2907 -59.5583 0.424567 11.8774 -0.0441649 -75.7036 7.27474 -5.31693 -3.18912 27.292 33.5252 0.0 0.0 0.0 14.5488 8.97218 -0.613714 -42.9335 -0.663866 6.40399 40.2087 14.7524 -4.94762 -10.6187 0.0 0.0 -0.0 0.0 -0.0 5.71829 -34.367 14.7559 -23.9558 -0.227741 -3.64246 37.8191 31.0006 5.77029 -6.37895 0.0 0.0 0.0 0.0 0.0 
3523.01 673.412 -1561.21 -3.28359 82.8613 -0.345603 0.70962 0.878934 1.25628 0.710144 0.797219 1.30965 0.728951 0.52273 1.44134 0.726823 0.743782 1.34072 -0.512584 1.11189 -2.4472 -0.479358 3.97505 -2.49284 -0.0 0.0 -0.0 -2.6401 23.7929 -0.838761 -17.3654 -11.0498 75.9054 1.01858 -26.7737 0.242418 -49.5285 -4.01663 4.65802 0.255975 28.9334 12.7325 -0.0 0.0 -0.0 11.523 -4.28752 -22.4627 -17.5526 40.6058 -61.3584 0.451388 12.6045 -0.0498518 -76.878 7.4246 -5.31088 -3.45967 27.1723 35.5331 0.0 0.0 0.0 16.4648 9.28408 -1.14917 -40.6922 -0.511393 6.0949 39.5039 14.5605 -4.88149 -13.3253 0.0 0.0 -0.0 0.0 -0.0 4.4129 -36.5494 14.0103 -21.8495 -0.26908 -3.3219 37.7494 32.6822 5.89078 -6.06614 0.0 0.0 0.0 0.0 0.0 
3521.49 677.741 -1566.89 1.77078 80.7567 -5.29769 0.423099 1.15451 1.44412 0.423634 1.06028 1.51464 0.452589 0.732065 1.69774 0.449937 0.990972 1.56086 -0.917655 1.6669 -2.04914 -0.886789 4.64167 -1.98608 -0.0 0.0 -0.0 -2.86192 23.9267 -1.11536 -17.6243 -9.28694 75.5544 0.935966 -24.8744 0.206427 -48.9457 -3.94875 4.62663 0.153202 29.1819 12.2482 -0.0 0.0 -0.0 11.7727 -2.87491 -23.1221 -15.0153 41.9951 -63.0397 0.477432 13.3065 -0.0556908 -77.9506 7.5613 -5.30264 -3.6571 27.2919 37.0914 0.0 0.0 0.0 18.8357 8.30723 -1.72405 -36.9989 -0.286961 5.57355 38.7876 14.27 -4.8121 -15.2324 0.0 0.0 -0.0 0.0 -0.0 2.79207 -36.6301 13.2732 -20.6026 -0.287988 -3.13151 37.6686 33.9775 5.98796 -5.85434 0.0 0.0 0.0 0.0 0.0 
3516.08 682.314 -1573.55 1.62501 79.2802 -4.70815 0.409279 1.15902 1.84696 0.410576 1.03917 1.91694 0.446711 0.629871 2.08748 0.441893 0.951583 1.96188 -3.10974 1.07062 -2.15423 -3.08786 3.62258 -2.0822 -0.0 0.0 -0.0 -2.77827 24.3367 -0.922914 -18.516 -7.68222 74.5428 0.779046 -21.1024 0.14511 -49.3492 -3.99572 4.64843 -0.154188 29.0709 10.5242 -0.0 0.0 -0.0 12.049 -1.82683 -23.804 -11.7021 44.4358 -64.8794 0.518416 14.403 -0.0655051 -79.6867 7.78207 -5.28385 -3.90367 27.4357 39.071 0.0 0.0 0.0 20.0791 5.29072 -2.48201 -30.0721 0.0412968 4.56217 36.5693 13.8134 -4.59755 -18.5295 0.0 0.0 -0.0 0.0 -0.0 0.335518 -38.4075 11.6315 -15.212 -0.321931 -2.30541 37.809 33.786 5.98687 -4.15075 0.0 0.0 0.0 0.0 0.0 
3513.22 682.188 -1575.65 -3.70541 79.5242 0.674837 0.634167 0.834943 1.96092 0.636027 0.708499 2.01005 0.66203 0.294914 2.11071 0.656357 0.624493 2.0377 -2.36027 1.1559 -2.62586 -2.32717 4.1613 -2.59416 -0.0 0.0 -0.0 -3.20916 24.1343 -1.54566 -19.3188 -4.33176 75.3832 0.77991 -21.1237 0.145421 -48.5283 -3.90032 4.60373 0.0709886 29.1027 11.7693 -0.0 0.0 -0.0 11.834 -1.06381 -23.4177 -4.41661 45.1152 -67.3584 0.530301 14.719 -0.0684934 -77.1445 7.45859 -5.30907 -4.04248 26.6872 39.9572 0.0 0.0 0.0 19.8121 4.7397 -2.08694 -20.9771 0.282745 3.18873 37.569 9.7346 -4.65511 -18.9984 0.0 0.0 -0.0 0.0 -0.0 -1.72398 -38.5823 10.1373 -8.77405 -0.260601 -1.32002 37.2799 32.2055 5.80386 -5.84084 0.0 0.0 0.0 0.0 0.0 
3509.9 678.621 -1573.58 -5.03664 79.2821 1.50081 0.659913 0.993696 2.11443 0.661992 0.857168 2.17334 0.695884 0.409656 2.30002 0.689324 0.767673 2.20653 -3.45696 1.64583 -2.97624 -3.41477 5.29975 -2.83457 -0.0 0.0 -0.0 -3.13818 24.4354 -1.38832 -20.0215 -5.09867 74.4493 0.678427 -18.5762 0.110953 -48.2617 -3.86948 4.58891 0.00914667 29.0757 11.4204 -0.0 0.0 -0.0 12.0154 0.6257 -23.9417 -0.487504 46.4778 -67.663 0.54278 15.0498 -0.0716987 -78.9278 7.68566 -5.2929 -4.02399 25.7558 39.52 0.0 0.0 0.0 20.8132 2.50432 -2.27642 -15.4968 0.322084 2.34911 34.928 5.20734 -4.39152 -20.9408 0.0 0.0 -0.0 0.0 -0.0 -0.222268 -38.645 11.6586 -9.73012 -0.276706 -1.46584 37.7143 31.4142 5.78984 -5.04964 0.0 0.0 0.0 0.0 0.0 
3503.28 680.807 -1570.18 -5.54335 78.4118 1.69847 0.619073 0.977167 2.13908 0.621227 0.839106 2.19689 0.654824 0.385612 2.31979 0.648093 0.747051 2.22986 -4.00636 1.67278 -3.20394 -3.96077 5.51044 -3.03502 -0.0 0.0 -0.0 -2.90481 24.8953 -0.98413 -21.0188 -4.71253 74.7474 0.592272 -16.3515 0.0850928 -48.2214 -3.86482 4.58666 -0.0191694 28.9583 11.2243 -0.0 0.0 -0.0 11.9607 1.35988 -23.8768 3.07982 48.1031 -69.3487 0.550028 15.2415 -0.0735925 -79.7219 7.78654 -5.2834 -4.07315 25.3926 39.8034 0.0 0.0 0.0 21.7533 1.54382 -2.65892 -8.51026 0.25573 1.27983 33.2842 3.46727 -4.23224 -22.1877 0.0 0.0 -0.0 0.0 -0.0 -0.949058 -39.3235 11.5743 -7.00315 -0.224351 -1.05069 37.438 30.4837 5.69355 -5.38927 0.0 0.0 0.0 0.0 0.0 
3496.58 678.467 -1569.95 -7.44106 78.8294 3.13888 0.771838 0.79527 2.26805 0.774466 0.649377 2.31402 0.801972 0.182379 2.39644 0.794392 0.558459 2.33762 -4.33091 1.96952 -3.07169 -4.28728 5.94412 -2.83225 -0.0 0.0 -0.0 -2.66605 24.8402 -0.676814 -21.8524 -4.16366 74.1746 0.528016 -14.6583 0.0679139 -48.1882 -3.86099 4.5848 -0.0406198 28.9613 11.1076 -0.0 0.0 -0.0 11.9337 1.96183 -23.8583 6.59095 48.5092 -70.9794 0.555784 15.3934 -0.0751131 -79.8949 7.8085 -5.28115 -4.06407 24.7911 39.5357 0.0 0.0 0.0 22.3073 0.323243 -1.87661 -3.62565 0.132207 0.540626 29.6489 2.01128 -3.86054 -23.5635 0.0 0.0 -0.0 0.0 -0.0 -1.59316 -39.7234 11.4322 -4.48926 -0.158629 -0.67053 37.2969 30.087 5.65107 -5.37894 0.0 0.0 0.0 0.0 0.0 
3481.55 675.849 -1567.37 -10.3948 78.6556 5.87247 0.882346 0.848334 2.38948 0.885254 0.694613 2.43858 0.916138 0.207361 2.52703 0.907735 0.603736 2.46264 -4.69596 1.45807 -3.81933 -4.63955 5.56293 -3.66206 -0.0 0.0 -0.0 -2.64752 25.504 -0.527336 -23.0526 -3.48858 74.0965 0.473956 -13.213 0.0548935 -48.1888 -3.86105 4.58484 -0.0676768 29.0434 10.9879 -0.0 0.0 -0.0 11.9182 2.21878 -23.8408 8.9274 49.0882 -71.9586 0.55727 15.4326 -0.0755079 -79.9897 7.82053 -5.27988 -4.13804 24.3822 40.006 0.0 0.0 0.0 22.8684 -0.491456 -1.3755 -0.239751 0.00979812 0.0354876 30.847 0.10348 -3.99929 -24.1071 0.0 0.0 -0.0 0.0 -0.0 -2.20402 -40.254 11.0963 -2.39779 -0.0912734 -0.356634 37.8438 29.2279 5.64897 -5.3709 0.0 0.0 0.0 0.0 0.0 
3470.97 675.353 -1568.4 -10.7829 80.1799 6.47552 1.02761 0.816439 2.42252 1.03063 0.660682 2.46952 1.06028 0.17445 2.55037 1.05167 0.574918 2.49088 -4.19081 2.11927 -3.30329 -4.13955 6.39784 -3.05518 -0.0 0.0 -0.0 -2.38304 24.0958 -0.43396 -23.6735 -3.03016 73.8559 0.403158 -11.2943 0.0398651 -48.2732 -3.87081 4.58956 -0.220977 28.8878 10.0933 -0.0 0.0 -0.0 12.0252 3.08481 -24.1255 10.6443 48.4136 -72.2672 0.567193 15.694 -0.0781703 -78.6592 7.6515 -5.29579 -4.13327 23.7698 39.7626 0.0 0.0 0.0 23.2232 -1.16281 -1.4003 6.05386 -0.296197 -0.881066 25.1551 -0.568795 -3.37521 -26.003 0.0 0.0 -0.0 0.0 -0.0 -2.78987 -40.7067 10.6402 -3.7858 -0.137255 -0.564686 37.7961 29.5063 5.66285 -5.33598 0.0 0.0 0.0 0.0 0.0 
3463.93 675.551 -1569.36 -12.0191 80.1154 7.83425 0.976326 0.825255 2.50039 0.979558 0.664529 2.54779 1.0104 0.16092 2.62806 1.00122 0.573815 2.56973 -3.47924 3.31076 -2.57739 -3.42754 8.0239 -2.16917 -0.0 0.0 -0.0 -2.32162 23.9341 -0.37964 -23.7724 -2.81015 73.7047 0.36237 -10.1768 0.0322669 -48.6351 -3.91269 4.60962 -0.44341 28.9893 8.9176 -0.0 0.0 -0.0 12.0979 3.36722 -24.3007 12.6976 48.1767 -73.0065 0.592363 16.3539 -0.0851182 -76.931 7.43136 -5.31053 -4.03007 22.3997 38.4441 0.0 0.0 0.0 24.262 -1.88565 -1.96498 7.43223 -0.376569 -1.07706 19.388 -0.881451 -2.68092 -26.7851 0.0 0.0 -0.0 0.0 -0.0 -2.90322 -40.9097 10.6895 -3.49107 -0.127913 -0.520418 37.9202 30.1061 5.71682 -3.44527 0.0 0.0 0.0 0.0 0.0 
3448.22 674.2 -1565.96 -14.3311 79.9862 10.9784 1.04301 0.82766 2.51198 1.04627 0.666193 2.55951 1.07727 0.163378 2.63969 1.06801 0.578077 2.58083 -4.76082 2.38117 -3.39938 -4.70812 6.93689 -3.07274 -0.0 0.0 -0.0 -2.08539 23.6209 -0.112497 -24.5466 -2.4756 73.8311 0.323636 -9.10835 0.0257787 -48.2758 -3.8711 4.5897 -0.355819 28.731 9.29873 -0.0 0.0 -0.0 11.9089 3.60196 -23.8989 14.2991 47.7153 -74.3906 0.615286 16.9511 -0.0916872 -77.7978 7.54184 -5.30397 -4.2509 23.3617 40.5968 0.0 0.0 0.0 23.4223 -2.39167 -2.37921 8.71907 -0.455855 -1.25828 21.3456 -2.01914 -2.93223 -27.0778 0.0 0.0 -0.0 0.0 -0.0 -3.50242 -41.0051 10.1875 -3.46761 -0.12716 -0.516896 37.7304 29.8109 5.67689 -4.9322 0.0 0.0 0.0 0.0 0.0 
3438.98 672.298 -1567.28 -15.6563 79.5997 12.4293 1.15583 0.891693 2.52763 1.15909 0.729102 2.5792 1.19309 0.22682 2.6706 1.18371 0.645601 2.60134 -4.92732 2.59472 -3.14522 -4.8801 7.13385 -2.76488 -0.0 0.0 -0.0 -2.0234 23.2738 -0.0864799 -24.5828 -2.4958 73.7295 0.296927 -8.36775 0.021721 -48.193 -3.86154 4.58507 -0.380185 28.8521 9.21068 -0.0 0.0 -0.0 12.2042 4.03675 -24.5706 15.3394 47.4939 -74.9452 0.60247 16.6176 -0.0879864 -77.6439 7.52224 -5.30526 -4.24863 23.1809 40.5161 0.0 0.0 0.0 23.3404 -2.93676 -2.96565 8.73455 -0.456833 -1.26045 19.9073 -2.5653 -2.75846 -27.4128 0.0 0.0 -0.0 0.0 -0.0 -3.82604 -41.4404 9.88987 -3.75586 -0.136316 -0.560186 37.6988 29.906 5.6802 -4.6706 0.0 0.0 0.0 0.0 0.0 
3418.25 669.831 -1567.57 -13.1279 79.6822 9.887 1.13349 0.941789 2.54972 1.13677 0.777693 2.60443 1.17337 0.26887 2.70466 1.16383 0.692499 2.62835 -6.92646 3.89039 -2.13497 -6.90757 8.76676 -1.35404 -0.0 0.0 -0.0 -1.89883 23.7229 0.159165 -25.3073 -2.99666 72.9645 0.277595 -7.82996 0.0189974 -47.9166 -3.82965 4.56952 -0.391517 28.5436 9.03381 -0.0 0.0 -0.0 12.3122 4.30072 -24.8231 16.3099 47.1264 -75.5004 0.622418 17.1361 -0.0937778 -75.3667 7.23171 -5.3181 -4.3333 21.1231 40.4941 0.0 0.0 0.0 23.3117 -3.53233 -3.67712 7.95391 -0.408219 -1.15074 14.9522 -2.61425 -2.11946 -27.8259 0.0 0.0 -0.0 0.0 -0.0 -4.97074 -41.7374 10.2744 -3.92961 -0.14173 -0.586303 37.6006 29.5205 5.64375 -4.48124 0.0 0.0 0.0 0.0 0.0 
3407.44 668.063 -1567.76 -13.9488 79.104 10.8161 1.13692 0.968141 2.59543 1.14031 0.801085 2.65172 1.17869 0.283139 2.7555 1.16881 0.71461 2.67631 -8.28433 4.53146 -1.88373 -8.28299 9.79051 -0.855693 -0.0 0.0 -0.0 -1.52574 23.875 0.690708 -25.3992 -3.56901 72.7365 0.269267 -7.59785 0.0178797 -47.8777 -3.82517 4.56733 -0.468469 28.6968 8.67096 -0.0 0.0 -0.0 12.2621 4.51164 -24.7225 17.4534 47.2096 -76.4566 0.656102 18.005 -0.103947 -75.1427 7.20311 -5.31873 -4.343 21.2152 40.6096 0.0 0.0 0.0 23.337 -3.81441 -4.1453 7.05017 -0.353818 -1.02293 13.4895 -2.21378 -1.92144 -27.6011 0.0 0.0 -0.0 0.0 -0.0 -5.38768 -42.2172 10.2721 -3.53621 -0.129359 -0.527195 37.4357 29.0935 5.59822 -4.41502 0.0 0.0 0.0 0.0 0.0 
